<svg width="1172" height="872" viewBox="0 0 1172 872" fill="none" xmlns="http://www.w3.org/2000/svg">
<path d="M541.441 722.072C506.271 742.404 469.402 755.627 427.425 755.454C380.635 755.257 334.253 723.862 304.94 689.406C294.05 676.608 284.525 661.818 282.317 645.163C277.232 606.685 312.442 595.74 344.146 596.228C362.017 596.495 379.3 601.447 396.389 606.357C424.763 614.518 456.403 615.246 483.022 628.919C491.957 633.524 499.174 639.711 509.068 642.431C524.461 646.667 541.177 646.913 556.837 650.462C570.212 653.519 585.687 659.76 588.21 673.24C590.78 687.068 577.99 698.56 566.336 706.419C558.092 712.008 549.822 717.244 541.441 722.072Z" fill="url(#paint0_linear)"/>
<path d="M293.138 266.927C334.135 156.674 457.492 86.2244 573.724 95.4349C629.773 99.8853 681.972 124.952 731.13 152.205C774.46 176.225 817.364 203.07 851.776 239.163C875.271 263.797 895.479 295.276 911.663 325.32C935.876 370.311 939.731 434.977 876.521 445.651C861.691 448.157 847.803 446.005 833.054 444.759C821.122 443.742 810.866 448.617 798.978 449.605C769.056 452.098 738.709 448.289 709.426 442.295C649.745 430.053 592.451 407.596 532.016 398.862C482.496 391.728 432.068 394.134 383.451 405.949C362.942 410.937 341.737 417.651 321.153 412.976C270.413 401.431 275.804 335.472 284.284 297.034C286.518 286.801 289.477 276.74 293.138 266.927Z" fill="url(#paint1_linear)"/>
<path d="M792.846 160.92C804.907 167.443 849.667 182.351 843.399 153.526C841.828 146.348 836.895 140.213 831.211 136.066C824.703 131.302 818.219 129.555 812.573 123.532C805.692 116.274 798.269 109.687 790.4 103.855C774.249 91.6626 756.3 81.1381 737.169 79.1758C723.752 77.8047 703.129 84.0269 701.14 101.279C698.239 126.395 735.79 121.67 748.981 127.333C761.495 132.687 770.823 144.868 781.852 153.663C785.336 156.435 789.016 158.864 792.846 160.92Z" fill="url(#paint2_linear)"/>
<path d="M589.031 174.069C614.627 181.76 636.237 197.365 660.521 208.247C700.952 226.361 748.821 220.369 792.264 229.212C836.563 238.241 873.684 260.042 897.529 298.728C928.321 348.659 945.778 412.731 944.551 472.116C943.192 537.487 914.694 587.669 865.088 628.63C815.511 669.566 756.325 697.499 694.839 715.33C688.907 717.056 682.956 718.66 676.956 720.17C542.183 754.009 350.9 750.502 269.44 616.769C268.694 615.547 267.966 614.322 267.232 613.077C258.541 598.084 251.677 582.104 246.785 565.478C229.295 506.575 223.613 438.223 230.826 377.222C235.668 336.157 260.658 304.139 287.002 273.661C324.016 230.843 374.19 202.118 427.675 184.969C467.28 172.272 512.35 160.138 554.233 166.219C566.012 167.963 577.644 170.586 589.031 174.069Z" fill="url(#paint3_linear)"/>
<path d="M902.596 591.092C878.939 624.117 850.803 651.366 812.489 668.519C769.782 687.633 714.58 678.157 673.668 658.854C658.469 651.686 643.693 642.139 634.814 627.876C614.314 594.919 641.879 570.429 670.963 557.8C687.353 550.674 705.141 548.059 722.734 545.486C751.949 541.22 781.075 528.837 810.963 530.317C821.002 530.828 830.128 533.487 840.263 531.886C856.033 529.398 871.363 522.729 887.093 519.505C900.539 516.775 917.211 516.079 925.067 527.319C933.111 538.857 926.197 554.601 918.821 566.566C913.615 575.057 908.24 583.237 902.596 591.092Z" fill="url(#paint4_linear)"/>
<path d="M506.769 411.544C506.429 411.544 506.085 411.436 505.792 411.21C505.525 411 499.197 406.001 494.364 395.804C489.931 386.453 485.996 370.776 492.404 349.163C496.75 334.501 501.106 324.078 504.946 314.876C511.92 298.182 516.96 286.12 517.367 260.548C517.38 259.673 518.026 258.922 518.981 258.983C519.862 258.999 520.562 259.718 520.549 260.599C520.132 286.782 514.727 299.722 507.883 316.105C504.071 325.23 499.753 335.57 495.455 350.07C483.768 389.472 507.507 408.512 507.749 408.696C508.44 409.237 508.564 410.236 508.026 410.93C507.711 411.334 507.243 411.544 506.769 411.544Z" fill="#000C3E"/>
<path d="M637.137 160.277C636.898 177.611 622.654 191.474 605.316 191.236C587.982 190.997 574.123 176.752 574.358 159.415C574.597 142.081 588.844 128.221 606.179 128.457C623.513 128.695 637.375 142.943 637.137 160.277Z" fill="#000C3E"/>
<path d="M503.732 400.331C503.732 400.331 513.388 419.1 551.146 424.887C588.9 430.672 618.086 416.367 647.361 426.205C676.636 436.046 718.244 421.333 726.265 408.941C734.289 396.548 729.339 261.524 705.915 239.421C682.491 217.317 562.129 201.262 536.771 228.38C511.412 255.501 486.887 385.51 503.732 400.331Z" fill="#000C3E"/>
<path d="M718.276 288.622C717.493 345.75 670.546 391.427 613.415 390.644C556.287 389.862 510.61 342.912 511.393 285.784C512.179 228.656 559.125 182.979 616.253 183.762C673.381 184.548 719.058 231.494 718.276 288.622Z" fill="#000C3E"/>
<path d="M530.303 285.329C530.303 285.329 537.535 410.762 622.538 414.166C707.538 417.571 703.253 240.702 672.139 224.605C641.024 208.512 512.925 214.713 530.303 285.329Z" fill="#FFCEB0"/>
<path d="M618.082 310.133C618.082 310.133 635.209 348.387 631.098 351.047C626.987 353.704 614.769 353.538 611.413 350.776C608.056 348.015 611.349 305.968 618.082 310.133Z" fill="#F5A473"/>
<path d="M592.971 323.668C592.859 328.072 589.2 331.552 584.797 331.441C580.393 331.333 576.913 327.674 577.024 323.27C577.132 318.867 580.791 315.386 585.198 315.494C589.601 315.606 593.082 319.265 592.971 323.668Z" fill="#41294A"/>
<path d="M661.348 318.287C661.236 322.69 657.577 326.171 653.174 326.06C648.77 325.952 645.29 322.293 645.401 317.889C645.509 313.486 649.168 310.005 653.575 310.113C657.978 310.224 661.459 313.883 661.348 318.287Z" fill="#41294A"/>
<path d="M595.539 216.796C595.539 216.796 565.456 232.237 560.324 260C555.188 287.764 559.862 358.434 527.542 355.955C527.542 355.955 461.789 217.438 595.539 216.796Z" fill="#41294A"/>
<path d="M611.593 217.016C608.879 219.058 643.016 218.164 663.096 241.362C683.179 264.56 689.218 323.585 692.263 324.609C695.308 325.637 705.595 250.977 683.666 229.141C661.738 207.308 627.038 205.393 611.593 217.016Z" fill="#41294A"/>
<path d="M685.062 329.826C685.062 329.826 692.44 298.206 706.879 309.055C721.318 319.905 709.275 353.049 695.336 356.361C681.4 359.674 677.709 346.208 685.062 329.826Z" fill="#FFCEB0"/>
<path d="M551.083 327.988C551.083 327.988 544.574 296.177 529.842 306.626C515.114 317.075 526.244 350.541 540.084 354.235C553.928 357.925 557.985 344.568 551.083 327.988Z" fill="#FFCEB0"/>
<path d="M649.521 290.152C649.521 290.152 664.532 282.233 673.782 293.611C681.917 303.614 663.349 295.507 656.514 296.802C649.677 298.1 640.647 297.534 649.521 290.152Z" fill="#41294A"/>
<path d="M589.864 293.035C589.864 293.035 574.468 285.892 565.81 297.725C558.196 308.132 576.326 299.087 583.221 300.035C590.112 300.98 599.104 299.952 589.864 293.035Z" fill="#41294A"/>
<path d="M644.07 374.422C644.07 374.422 634.276 359.624 623.681 360.556C613.083 361.491 604.96 375.131 603.534 375.704C603.534 375.704 620.073 383.471 644.07 374.422Z" fill="#41294A"/>
<path d="M584.51 305.909C571.252 305.909 560.316 316.702 560.131 329.963C560.046 336.473 562.495 342.633 567.039 347.304C571.582 351.971 577.669 354.59 584.182 354.679L584.523 354.682C597.781 354.682 608.716 343.893 608.898 330.631C609.082 317.189 598.296 306.1 584.85 305.912L584.51 305.909ZM584.523 357.864L584.138 357.861C576.775 357.762 569.893 354.797 564.758 349.521C559.622 344.243 556.851 337.281 556.95 329.919C557.157 314.926 569.521 302.728 584.51 302.728L584.895 302.731C600.094 302.941 612.286 315.477 612.08 330.673C611.876 345.665 599.512 357.864 584.523 357.864Z" fill="#FFFCF6"/>
<path d="M653.375 300.398C640.114 300.398 629.178 311.19 628.997 324.451C628.812 337.891 639.602 348.983 653.044 349.167L653.385 349.17C666.646 349.17 677.582 338.381 677.763 325.12C677.852 318.607 675.399 312.447 670.859 307.776C666.316 303.112 660.229 300.49 653.716 300.401L653.375 300.398ZM653.385 352.352L653.003 352.349C637.801 352.139 625.608 339.603 625.815 324.407C626.022 309.415 638.383 297.216 653.375 297.216L653.76 297.219C661.123 297.318 668.005 300.283 673.137 305.558C678.276 310.837 681.047 317.798 680.945 325.161C680.738 340.153 668.374 352.352 653.385 352.352Z" fill="#FFFCF6"/>
<path d="M559.224 325.969C559.043 325.969 558.855 325.937 558.677 325.873L548.473 322.125C547.649 321.82 547.226 320.907 547.528 320.079C547.83 319.259 548.75 318.842 549.571 319.138L559.771 322.883C560.598 323.188 561.018 324.101 560.716 324.928C560.481 325.571 559.873 325.969 559.224 325.969Z" fill="#FFFCF6"/>
<path d="M678.211 318.738C677.533 318.738 676.903 318.303 676.693 317.622C676.429 316.785 676.897 315.891 677.737 315.627L691.682 311.274C692.516 311.007 693.413 311.481 693.674 312.318C693.938 313.158 693.47 314.049 692.63 314.313L678.685 318.668C678.529 318.716 678.367 318.738 678.211 318.738Z" fill="#FFFCF6"/>
<path d="M611.096 246.184C611.096 246.184 611.125 277.915 630.028 283.646C648.927 289.379 697.547 286.85 697.054 279.096C692.603 209.088 659.694 212.61 632.21 203.65C584.01 187.942 544.589 266.642 550.491 285.243C556.393 303.84 597.074 286.474 605.783 283.859C614.488 281.24 609.665 259.678 611.096 246.184Z" fill="#000C3E"/>
<g opacity="0.210007">
<g opacity="0.210007">
<path opacity="0.210007" d="M562.352 353.354C562.352 353.354 605.232 328.612 624.052 332.071C642.872 335.533 675.902 336.074 677.397 342.825C678.896 349.574 635.523 346.532 622.182 347.83C608.841 349.128 557.624 364.486 562.352 353.354Z" fill="#DB5C5D"/>
</g>
</g>
<path d="M586.35 336.798C585.723 336.798 585.128 336.425 584.877 335.805C584.546 334.994 584.937 334.065 585.752 333.734C590.063 331.977 590.862 330.593 590.868 330.581C591.151 329.747 592.023 329.359 592.863 329.655C593.693 329.938 594.11 330.905 593.827 331.739C593.627 332.324 592.542 334.405 586.948 336.68C586.751 336.759 586.55 336.798 586.35 336.798Z" fill="#DB5C5D"/>
<path d="M651.861 333.43C650.579 333.43 648.415 333.041 645.017 331.384C644.225 331.002 643.897 330.051 644.282 329.258C644.664 328.469 645.622 328.145 646.408 328.527C650.598 330.566 652.157 330.226 652.176 330.226C652.988 329.885 653.853 330.283 654.197 331.091C654.54 331.899 654.101 332.854 653.29 333.201C653.08 333.29 652.628 333.43 651.861 333.43Z" fill="#DB5C5D"/>
<path d="M610.465 330.783C609.66 330.783 608.967 330.175 608.884 329.354C608.795 328.479 609.431 327.696 610.306 327.61L627.379 325.867C628.235 325.759 629.034 326.411 629.123 327.286C629.212 328.161 628.576 328.944 627.701 329.029L610.627 330.773C610.573 330.779 610.519 330.783 610.465 330.783Z" fill="#FFFCF6"/>
<path d="M586.825 190.807C586.592 190.807 586.354 190.756 586.131 190.645C577.104 186.257 571.645 179.999 569.895 172.042C566.013 154.373 581.798 134.825 582.472 134.001C583.032 133.32 584.031 133.221 584.709 133.778C585.39 134.335 585.492 135.334 584.935 136.015C584.779 136.206 569.449 155.21 573.003 171.367C574.534 178.322 579.418 183.846 587.521 187.788C588.311 188.17 588.641 189.124 588.256 189.913C587.983 190.476 587.416 190.807 586.825 190.807Z" fill="#000C3E"/>
<path d="M623.154 195.536C622.712 195.536 622.273 195.351 621.958 194.995C621.379 194.333 621.443 193.331 622.104 192.749C622.289 192.586 640.533 176.363 639.68 159.84C639.314 152.729 635.404 146.477 628.057 141.256C627.341 140.75 627.173 139.757 627.682 139.038C628.191 138.325 629.184 138.156 629.9 138.666C638.08 144.475 642.442 151.548 642.859 159.687C643.781 177.75 625.003 194.438 624.201 195.141C623.899 195.405 623.527 195.536 623.154 195.536Z" fill="#000C3E"/>
<path d="M717.785 404.423C717.323 404.423 716.865 404.225 716.55 403.834C715.996 403.156 716.098 402.154 716.779 401.597C716.989 401.425 737.915 383.948 731.854 356.299C729.519 345.64 725.424 333.912 721.087 321.497C713.569 299.966 705.793 277.701 705.159 256.116C705.134 255.234 705.828 254.506 706.706 254.477C707.53 254.506 708.316 255.142 708.341 256.02C708.962 277.115 716.652 299.145 724.091 320.447C728.459 332.958 732.586 344.772 734.963 355.615C741.45 385.221 719.016 403.882 718.787 404.066C718.491 404.305 718.138 404.423 717.785 404.423Z" fill="#000C3E"/>
<path d="M723.435 290.793C723.384 290.793 723.33 290.79 723.276 290.787C722.404 290.701 721.765 289.921 721.851 289.046C724.6 261.209 718.742 238.616 704.447 221.883C681.427 194.95 644.029 192.478 643.657 192.455C642.778 192.404 642.107 191.653 642.161 190.772C642.209 189.897 642.963 189.204 643.838 189.28C644.229 189.302 682.976 191.86 706.865 219.815C721.746 237.232 727.855 260.63 725.017 289.358C724.937 290.182 724.243 290.793 723.435 290.793Z" fill="#000C3E"/>
<path d="M609.491 377.563C609.491 377.563 625.346 366.439 639.505 375.975C639.505 375.975 622.972 382.17 609.491 377.563Z" fill="#DB5C5D"/>
<path d="M619.982 388.982C618.416 388.982 617.071 388.967 616.24 388.954C615.362 388.941 614.662 388.219 614.675 387.338C614.687 386.459 615.289 385.747 616.291 385.772C622.298 385.852 629.476 385.705 630.593 385.282C631.411 384.97 632.333 385.378 632.648 386.195C632.963 387.016 632.562 387.929 631.745 388.248C630.154 388.865 624.249 388.982 619.982 388.982Z" fill="#DB5C5D"/>
<path d="M542.817 345.445C542.674 345.445 542.531 345.426 542.388 345.385C541.542 345.149 541.048 344.274 541.284 343.425C545.636 327.825 534.08 317.78 533.963 317.678C533.295 317.112 533.212 316.107 533.781 315.435C534.348 314.767 535.353 314.684 536.024 315.257C536.565 315.715 549.245 326.74 544.348 344.284C544.151 344.984 543.514 345.445 542.817 345.445Z" fill="#DB5C5D"/>
<path d="M691.257 349.245C691.222 349.245 691.19 349.245 691.152 349.242C690.277 349.185 689.612 348.427 689.666 347.552C690.856 329.089 699.705 319.219 700.083 318.809C700.675 318.159 701.681 318.115 702.327 318.707C702.976 319.299 703.02 320.304 702.432 320.953C702.346 321.048 693.955 330.476 692.845 347.756C692.788 348.599 692.088 349.245 691.257 349.245Z" fill="#DB5C5D"/>
<path d="M659.31 401.183C659.31 401.183 664.369 457.776 657.655 466.726C650.942 475.68 608.421 468.963 597.231 466.726C586.041 464.49 586.018 370.89 588.277 377.212C606.961 429.427 658.021 383.219 659.31 401.183Z" fill="#FFCEB0"/>
<path d="M592.324 406.781C592.324 406.781 622.49 421.28 656.782 403.729C656.782 403.729 659.449 424.812 656.782 429.673C654.119 434.535 599.797 438.009 589.104 414.048C589.104 414.048 589.237 405.74 592.324 406.781Z" fill="#F5A473"/>
<path d="M427.586 850.118H817.96C817.96 850.118 837.899 510.716 788.999 473.808C740.096 436.897 524.823 455.335 474.141 486.863C423.46 518.391 427.586 850.118 427.586 850.118Z" fill="#FB4C47"/>
<path d="M622.49 460.019C622.49 460.019 607.444 590.483 614.011 608.641C620.575 626.8 612.166 707.307 609.493 717.772C606.817 728.236 525.711 732.681 504.782 724.31C483.853 715.939 510.115 490.287 521.83 448.54C533.548 406.789 621.202 431.387 622.49 460.019Z" fill="#05BA6E"/>
<path d="M384.307 300.174C384.307 300.174 416.935 362.667 439.802 363.246C462.673 363.825 539.792 269.91 568.227 268.942C596.665 267.978 621.085 270.737 621.196 263.96C621.308 257.179 581.644 249.779 581.644 249.779C581.644 249.779 639.004 253.431 627.14 247.157C615.278 240.883 586.853 235.241 586.853 235.241C586.853 235.241 628.078 236.905 628.377 232.496C628.676 228.086 585.456 221.592 585.456 221.592C585.456 221.592 638.05 219.912 628.431 212.676C618.81 205.441 600.703 208.582 551.726 216.062C502.747 223.542 391.94 288.93 384.307 300.174Z" fill="#FFCEB0"/>
<path d="M441.551 297.18C441.551 297.18 493.748 328.272 471.02 363.507C446.82 401.026 448.176 389.88 443.992 405.06C439.804 420.24 508.778 449.805 511.915 462.799C515.052 475.79 482.538 635.574 452.083 629.016C425.573 623.311 278.252 539.708 257.081 456.162C240.669 391.392 374.439 232.963 441.551 297.18Z" fill="#FB4C47"/>
<path d="M578.183 661.64C578.183 661.64 520.348 789.043 541.612 806.104C562.875 823.161 580.009 812.047 598.813 823.12C617.62 834.192 635.661 828.656 650.768 819.022C665.874 809.384 626.558 682.633 610.296 670.565C594.034 658.493 581.113 655.019 578.183 661.64Z" fill="white"/>
<path d="M770.339 464.742C770.339 464.742 801.437 468.538 825.847 513.242C844.161 546.782 879.642 742.771 825.847 770.696C772.053 798.619 721.598 784.013 702.073 765.195C682.546 746.377 717.288 649.396 740.445 642.157C763.606 634.921 770.339 464.742 770.339 464.742Z" fill="#FB4C47"/>
<path d="M780.408 461.738C780.408 461.738 781.862 452.676 737.079 433.296C701.342 417.83 670.731 443.933 616.218 446.742C561.705 449.555 566.624 427.948 528.065 437.99C468.56 453.481 515.936 492.486 535.109 496.864C554.282 501.242 618.518 609.227 780.408 461.738Z" fill="#05BA6E"/>
<path d="M624.117 352.842C624.117 352.842 623.952 356.533 626.071 356.867C628.19 357.201 632.106 356.018 631.098 351.045C631.098 351.045 625.784 352.753 624.117 352.842Z" fill="white"/>
<path d="M844.852 658.56C844.702 658.56 844.549 658.551 844.397 658.528C842.927 658.318 841.839 657.135 841.683 655.725C839.032 652.661 821.237 646.244 809.366 641.961C785.846 633.475 775.299 629.279 773.03 624.688C771.105 620.796 771.968 615.184 773.059 608.079C774.787 596.835 776.941 582.835 769.801 569.351C757.472 546.064 758.646 511.523 758.703 510.066C758.773 508.309 760.291 506.903 762.002 507.008C763.759 507.075 765.127 508.554 765.063 510.307C765.047 510.651 763.902 544.613 775.426 566.373C783.549 581.721 781.121 597.512 779.349 609.043C778.5 614.563 777.701 619.778 778.735 621.869C780.663 624.843 799.235 631.544 811.523 635.976C839.217 645.967 848.832 649.986 847.995 655.83C847.769 657.418 846.407 658.56 844.852 658.56Z" fill="#B31B1F"/>
<path d="M761.838 632.401C761.561 632.401 761.281 632.366 760.998 632.289C750.485 629.422 734.153 626.438 733.991 626.406C732.26 626.094 731.115 624.437 731.43 622.709C731.745 620.978 733.396 619.814 735.13 620.148C735.808 620.269 751.892 623.209 762.671 626.148C764.367 626.613 765.366 628.36 764.905 630.056C764.52 631.471 763.238 632.401 761.838 632.401Z" fill="#B31B1F"/>
<path d="M818.991 789.782C818.94 789.782 818.892 789.782 818.844 789.778C759.951 787.109 701.273 762.021 698.101 738.158C697.105 730.659 696.386 726.907 695.94 725.052C694.75 724.461 694.028 723.194 694.241 721.81C694.645 719.188 696.421 718.259 697.83 718.259H697.865C701.069 718.294 702.132 720.172 704.41 737.321C706.873 755.845 760.294 780.755 819.131 783.421C820.887 783.501 822.246 784.987 822.166 786.743C822.09 788.452 820.68 789.782 818.991 789.782Z" fill="#B31B1F"/>
<path d="M713.414 733.468C713.182 733.468 712.947 733.442 712.708 733.391C710.996 733.003 709.921 731.298 710.309 729.583C710.446 728.969 724.363 667.625 737.37 623.497C737.866 621.811 739.648 620.844 741.321 621.347C743.008 621.843 743.972 623.612 743.472 625.298C730.523 669.229 716.653 730.375 716.517 730.989C716.179 732.465 714.869 733.468 713.414 733.468Z" fill="#B31B1F"/>
<path d="M437.338 600.236C437.182 600.236 437.02 600.224 436.861 600.201C435.123 599.94 433.927 598.318 434.188 596.584C434.516 594.388 442.371 542.542 453.151 518.281C463.632 494.705 468.996 470.8 469.05 470.562C469.426 468.847 471.122 467.774 472.846 468.144C474.561 468.525 475.643 470.228 475.261 471.942C475.041 472.942 469.702 496.709 458.967 520.868C448.538 544.34 440.558 596.997 440.478 597.526C440.243 599.107 438.884 600.236 437.338 600.236Z" fill="#B31B1F"/>
<path d="M388.835 419.219C380.365 419.219 370.874 418.704 360.425 417.374C358.681 417.151 357.447 415.56 357.67 413.816C357.889 412.073 359.521 410.861 361.227 411.061C393.044 415.115 415.647 411.382 427.299 408.84C421.495 406.985 413.366 405.178 405.252 405.62C386.996 406.479 360.282 390.17 359.152 389.47C357.657 388.547 357.196 386.587 358.118 385.092C359.041 383.596 361.004 383.129 362.496 384.058C362.757 384.217 388.688 400.059 404.925 399.263C420.391 398.449 438.708 405.337 440.372 408.293C440.967 409.346 440.92 410.714 440.242 411.717C439.612 412.642 438.308 413.199 437.162 413.129C436.659 413.186 435.17 413.543 433.723 413.886C426.764 415.554 411.428 419.216 388.835 419.219Z" fill="#B31B1F"/>
<path d="M467.046 350.836C465.862 350.836 464.726 350.174 464.179 349.041C464.1 348.879 456.155 332.741 442.626 326.346C427.268 319.082 409.899 293.765 409.167 292.693C408.177 291.239 408.553 289.257 410.004 288.27C411.461 287.284 413.437 287.662 414.423 289.107C414.595 289.355 431.55 314.065 445.35 320.59C460.94 327.969 469.55 345.529 469.909 346.27C470.673 347.855 470.008 349.751 468.427 350.514C467.981 350.734 467.51 350.836 467.046 350.836Z" fill="#B31B1F"/>
<path d="M614.835 535.743C614.717 535.743 614.596 535.73 614.478 535.701C613.622 535.507 613.085 534.652 613.282 533.799C613.358 533.462 620.947 500.289 623.168 483.438C626.626 457.167 614.86 448.003 614.742 447.914C614.039 447.386 613.893 446.393 614.415 445.69C614.936 444.984 615.923 444.834 616.629 445.353C617.179 445.757 630.046 455.56 626.321 483.852C624.084 500.855 616.46 534.174 616.384 534.505C616.215 535.247 615.56 535.743 614.835 535.743Z" fill="#08824F"/>
<path d="M521 487.899L517.841 487.533C517.841 487.533 520.31 466.053 521.598 455.493C522.9 444.84 525.938 437.567 526.069 437.262C526.409 436.447 527.345 436.078 528.153 436.412C528.961 436.756 529.339 437.691 528.999 438.499C528.967 438.569 525.999 445.696 524.758 455.881C523.469 466.432 521 487.896 521 487.899Z" fill="#08824F"/>
<path d="M611.345 840.628C593.2 840.628 583.222 840.029 569.413 839.202C551.65 838.136 527.325 836.679 470.481 835.794C468.724 835.769 467.321 834.325 467.35 832.565C467.378 830.809 468.925 829.345 470.579 829.431C527.564 830.316 551.971 831.782 569.792 832.851C583.493 833.669 593.388 834.264 611.345 834.264C633.824 834.264 653.99 831.801 673.494 829.421C690.615 827.328 706.785 825.355 724.116 824.97C761.084 824.156 788.711 824.967 788.985 824.97C790.741 825.028 792.122 826.494 792.068 828.247C792.014 830.004 790.531 831.305 788.794 831.334C788.52 831.324 761.049 830.51 724.259 831.334C707.243 831.709 691.223 833.666 674.264 835.737C654.573 838.143 634.213 840.628 611.345 840.628Z" fill="#B31B1F"/>
<path d="M755.481 798.174C753.899 798.174 752.315 797.465 750.934 795.378C746.636 788.884 745.337 788.349 737.027 789.628C729.508 790.802 726.54 785.473 724.573 781.951C723.918 780.773 723.294 779.663 722.75 779.233C721.287 778.078 717.631 779.466 716.085 780.318L714.541 777.538C715.216 777.162 721.21 773.964 724.723 776.736C725.763 777.56 726.498 778.877 727.351 780.398C729.251 783.793 731.217 787.29 736.54 786.485C746.053 785.015 748.595 786.087 753.588 793.621C754.911 795.626 756.057 795.352 759.585 793.294C762.264 791.722 766.327 789.351 769.356 793.583L766.773 795.435C765.592 793.796 764.523 794.092 761.189 796.039C759.595 796.972 757.539 798.174 755.481 798.174Z" fill="white"/>
<path d="M718.462 648.326C718.462 648.326 642.463 620.846 609.49 634.903C576.518 648.956 549.346 685.19 554.38 687.586C559.413 689.985 586.35 669.094 586.35 669.094C586.35 669.094 558.882 696.851 563.976 699.629C569.07 702.406 595.538 687.586 595.538 687.586C595.538 687.586 577.062 707.338 584.997 708.849C592.933 710.361 609.945 694.086 627.687 693.475C645.431 692.861 667.792 706.883 689.975 710.832C712.155 714.777 718.462 648.326 718.462 648.326Z" fill="#FFCEB0"/>
<path d="M833.155 634.082C832.958 634.082 832.761 634.063 832.56 634.024C832.338 633.986 809.957 629.755 783.202 624.314C781.481 623.964 780.367 622.284 780.717 620.563C781.064 618.841 782.741 617.728 784.469 618.081C811.179 623.509 833.521 627.731 833.744 627.776C835.472 628.1 836.604 629.764 836.277 631.492C835.99 633.019 834.654 634.082 833.155 634.082Z" fill="#B31B1F"/>
<path fill-rule="evenodd" clip-rule="evenodd" d="M620.748 134.011C619.916 134.011 619.013 134.108 618.035 134.301C615.649 134.78 614.104 135.939 613.176 137.95C609.039 146.904 617.762 168.228 623.994 180.827C627.845 166.851 632.46 143.489 625.938 136.128C624.682 134.713 622.973 134.011 620.748 134.011ZM624.177 191.291C624.276 191.31 624.377 191.324 624.48 191.332C624.811 191.46 625.165 191.526 625.523 191.526C625.855 191.526 626.186 191.471 626.51 191.353C630.76 189.804 668.181 175.769 672.842 159.597C673.964 155.708 673.174 151.874 670.562 148.515C666.119 142.795 661.319 142.115 658.073 142.547C648.862 143.776 639.795 155.676 633.145 166.982C635.497 154.104 636.403 139.234 630.259 132.298C628.092 129.85 624.011 127.225 616.905 128.64C612.735 129.472 609.632 131.857 607.935 135.531C601.658 149.129 616.099 178.411 620.912 187.486C614.843 188.657 608.739 188.921 602.901 188.525C590.321 187.67 579.171 183.758 572.514 179.478L570.135 183.18C577.501 187.915 589.39 192.017 602.602 192.914C609.532 193.385 616.88 192.979 624.177 191.291ZM659.664 148.212C659.392 148.212 659.114 148.229 658.837 148.271C649.082 149.569 637.294 170.26 631.062 183.349C644.017 177.894 664.565 167.475 667.295 158.001C667.908 155.868 667.496 153.983 666.006 152.059C663.998 149.477 661.92 148.212 659.664 148.212Z" fill="#FFD310"/>
<path d="M197.607 242.992H310.852C318.122 242.992 325 246.287 329.555 251.952L362.796 293.29C367.51 299.152 374.701 302.465 382.22 302.239L595.187 295.838" stroke="#FFB2B1" stroke-width="5" stroke-linejoin="round"/>
<path d="M209.698 243.507C209.698 248.543 205.616 252.626 200.58 252.626C195.544 252.626 191.462 248.543 191.462 243.507C191.462 238.471 195.544 234.389 200.58 234.389C205.616 234.389 209.698 238.471 209.698 243.507Z" fill="#FF383D"/>
<path d="M11.3381 243.608C11.3381 204.598 42.9624 172.974 81.9722 172.974C120.982 172.974 152.604 204.598 152.604 243.608C152.604 282.618 120.982 314.242 81.9722 314.242C42.9624 314.242 11.3381 282.618 11.3381 243.608Z" fill="#FFE1E2"/>
<path d="M81.6677 155.732C130.44 155.732 169.978 195.27 169.978 244.042C169.978 292.815 130.44 332.355 81.6677 332.355V375.966" stroke="#FFD6D7" stroke-width="2.4" stroke-miterlimit="10"/>
<path d="M74.4053 378.169C74.4053 374.158 77.6559 370.907 81.6675 370.907C85.6792 370.907 88.9298 374.158 88.9298 378.169C88.9298 382.181 85.6792 385.432 81.6675 385.432C77.6559 385.432 74.4053 382.181 74.4053 378.169Z" fill="#F2AEB0"/>
<path d="M53.4954 241.49V245.239H58.9094V247.473H53.4954V253.242H50.9172V239.138H59.9407V241.49H53.4954ZM64.7317 241.49V245.013H70.5217V247.259H64.7317V250.889H71.177V253.242H62.1536V239.138H71.177V241.49H64.7317ZM75.4094 239.138L77.4504 244.358C77.7584 245.182 78.1272 246.213 78.5569 247.452C78.9937 248.684 79.2981 249.565 79.47 250.095C79.6633 249.565 79.9749 248.677 80.4045 247.43C80.8414 246.184 81.2138 245.153 81.5217 244.337L83.5413 239.138H86.2913L80.8127 253.242H78.1594L72.6057 239.138H75.4094ZM90.6633 241.49V245.013H96.4534V247.259H90.6633V250.889H97.1086V253.242H88.0852V239.138H97.1086V241.49H90.6633ZM99.8372 239.138H105.434C107.153 239.138 108.456 239.521 109.344 240.287C110.239 241.046 110.687 242.131 110.687 243.542C110.687 244.523 110.458 245.361 109.999 246.055C109.548 246.743 108.911 247.241 108.087 247.549L110.773 253.242H107.894L105.52 247.989H102.415V253.242H99.8372V239.138ZM105.434 245.744C106.272 245.744 106.906 245.543 107.335 245.142C107.765 244.734 107.98 244.208 107.98 243.563C107.98 242.919 107.761 242.4 107.324 242.006C106.895 241.605 106.265 241.404 105.434 241.404H102.415V245.744H105.434Z" fill="#FF383D"/>
<path d="M651.337 357.242H820.026C828.886 357.242 837.025 362.123 841.197 369.938L872.489 428.546C876.661 436.361 884.8 441.242 893.66 441.242H976.337" stroke="#FFB2B1" stroke-width="5" stroke-linejoin="round"/>
<path d="M980.282 440.147C980.282 445.183 976.199 449.265 971.163 449.265C966.127 449.265 962.045 445.183 962.045 440.147C962.045 435.11 966.127 431.028 971.163 431.028C976.199 431.028 980.282 435.11 980.282 440.147Z" fill="#FF383D"/>
<path opacity="0.15" d="M1006.07 458.608C1006.07 419.598 1037.69 387.974 1076.7 387.974C1115.71 387.974 1147.34 419.598 1147.34 458.608C1147.34 497.618 1115.71 529.242 1076.7 529.242C1037.69 529.242 1006.07 497.618 1006.07 458.608Z" fill="#FF383D"/>
<path d="M1043.06 439.138H1048.65C1050.37 439.138 1051.68 439.521 1052.56 440.287C1053.46 441.046 1053.91 442.131 1053.91 443.542C1053.91 444.523 1053.68 445.361 1053.22 446.055C1052.77 446.743 1052.13 447.241 1051.31 447.549L1053.99 453.242H1051.11L1048.74 447.989H1045.64V453.242H1043.06V439.138ZM1048.65 445.744C1049.49 445.744 1050.13 445.543 1050.56 445.142C1050.98 444.734 1051.2 444.208 1051.2 443.563C1051.2 442.919 1050.98 442.4 1050.54 442.006C1050.11 441.605 1049.48 441.404 1048.65 441.404H1045.64V445.744H1048.65ZM1056.27 439.138H1058.85V448.054C1058.85 449.142 1059.16 449.933 1059.77 450.428C1060.39 450.922 1061.17 451.169 1062.12 451.169C1063.13 451.169 1063.94 450.907 1064.53 450.385C1065.13 449.855 1065.42 449.078 1065.42 448.054V439.138H1068V448.161C1068 449.321 1067.75 450.306 1067.24 451.115C1066.73 451.917 1066.03 452.522 1065.14 452.93C1064.26 453.332 1063.26 453.532 1062.12 453.532C1060.98 453.532 1059.97 453.328 1059.08 452.92C1058.2 452.504 1057.51 451.896 1057.01 451.094C1056.52 450.284 1056.27 449.307 1056.27 448.161V439.138ZM1082.51 439.138V453.242H1080.1L1073.61 443.585V453.242H1071.05V439.138H1073.48L1079.97 448.816V439.138H1082.51ZM1097.14 439.138V453.242H1094.73L1088.24 443.585V453.242H1085.68V439.138H1088.11L1094.6 448.816V439.138H1097.14ZM1101.92 439.138L1103.6 441.995C1104.01 442.711 1104.37 443.374 1104.69 443.982C1105 444.584 1105.19 444.963 1105.27 445.121C1105.35 444.956 1105.54 444.598 1105.85 444.047C1106.15 443.488 1106.53 442.804 1106.98 441.995L1108.66 439.138H1111.54L1106.54 447.592V453.242H1103.97V447.592L1098.95 439.138H1101.92ZM1062.09 468.138V482.242H1059.68L1053.19 472.585V482.242H1050.63V468.138H1053.06L1059.55 477.816V468.138H1062.09ZM1079.34 475.184C1079.34 476.602 1079.02 477.87 1078.38 478.987C1077.73 480.104 1076.84 480.974 1075.7 481.597C1074.57 482.221 1073.3 482.532 1071.89 482.532C1070.48 482.532 1069.21 482.224 1068.08 481.608C1066.95 480.992 1066.07 480.126 1065.43 479.009C1064.8 477.891 1064.48 476.624 1064.48 475.206C1064.48 473.781 1064.8 472.513 1065.43 471.403C1066.07 470.286 1066.95 469.416 1068.08 468.793C1069.21 468.17 1070.49 467.858 1071.91 467.858C1073.32 467.858 1074.59 468.17 1075.71 468.793C1076.84 469.416 1077.73 470.282 1078.38 471.392C1079.02 472.495 1079.34 473.759 1079.34 475.184ZM1076.62 475.184C1076.62 474.225 1076.42 473.373 1076.01 472.628C1075.61 471.883 1075.05 471.303 1074.33 470.888C1073.61 470.465 1072.81 470.254 1071.91 470.254C1071 470.254 1070.18 470.465 1069.46 470.888C1068.75 471.303 1068.18 471.883 1067.77 472.628C1067.37 473.373 1067.16 474.232 1067.16 475.206C1067.16 476.158 1067.37 477.011 1067.77 477.763C1068.18 478.507 1068.75 479.087 1069.46 479.503C1070.18 479.918 1071 480.126 1071.91 480.126C1072.81 480.126 1073.61 479.918 1074.33 479.503C1075.05 479.087 1075.61 478.507 1076.01 477.763C1076.42 477.011 1076.62 476.151 1076.62 475.184ZM1081.19 472.144C1081.19 471.278 1081.4 470.522 1081.82 469.878C1082.24 469.233 1082.83 468.735 1083.59 468.385C1084.35 468.034 1085.23 467.858 1086.23 467.858C1087.21 467.858 1088.08 468.03 1088.85 468.374C1089.62 468.718 1090.22 469.205 1090.65 469.835C1091.07 470.465 1091.29 471.199 1091.29 472.037H1088.64C1088.62 471.435 1088.38 470.952 1087.92 470.587C1087.46 470.214 1086.85 470.028 1086.1 470.028C1085.41 470.028 1084.86 470.2 1084.45 470.544C1084.04 470.88 1083.83 471.317 1083.83 471.854C1083.83 472.384 1084.01 472.775 1084.37 473.025C1084.74 473.276 1085.22 473.473 1085.82 473.616L1088.13 474.185C1089.18 474.436 1090.04 474.898 1090.69 475.571C1091.34 476.237 1091.67 477.096 1091.67 478.149C1091.67 479.03 1091.44 479.8 1091 480.459C1090.56 481.118 1089.94 481.63 1089.13 481.995C1088.33 482.353 1087.39 482.532 1086.33 482.532C1084.74 482.532 1083.45 482.149 1082.46 481.383C1081.47 480.609 1080.93 479.56 1080.85 478.235H1083.5C1083.53 478.894 1083.81 479.413 1084.33 479.793C1084.85 480.165 1085.53 480.351 1086.37 480.351C1087.18 480.351 1087.81 480.18 1088.27 479.836C1088.73 479.492 1088.96 479.019 1088.96 478.418C1088.96 477.902 1088.8 477.512 1088.48 477.247C1088.15 476.982 1087.73 476.785 1087.21 476.656L1084.84 476.087C1083.68 475.807 1082.79 475.342 1082.15 474.69C1081.51 474.031 1081.19 473.183 1081.19 472.144ZM1096.59 470.49V474.013H1102.38V476.259H1096.59V479.889H1103.03V482.242H1094.01V468.138H1103.03V470.49H1096.59Z" fill="#FF383D"/>
<path d="M1081.37 370.507C1130.14 370.507 1169.68 410.045 1169.68 458.82C1169.68 507.592 1130.14 547.13 1081.37 547.13V590.744" stroke="#FFD6D7" stroke-width="2.4" stroke-miterlimit="10"/>
<path d="M1074.11 592.946C1074.11 588.934 1077.36 585.684 1081.37 585.684C1085.38 585.684 1088.63 588.934 1088.63 592.946C1088.63 596.958 1085.38 600.208 1081.37 600.208C1077.36 600.208 1074.11 596.958 1074.11 592.946Z" fill="#F2AEB0"/>
<path opacity="0.15" d="M11.3381 729.608C11.3381 690.598 42.9624 658.974 81.9722 658.974C120.982 658.974 152.604 690.598 152.604 729.608C152.604 768.618 120.982 800.242 81.9722 800.242C42.9624 800.242 11.3381 768.618 11.3381 729.608Z" fill="#FF383D"/>
<g filter="url(#filter0_d)">
<path d="M32.1594 726.138C33.5344 726.138 34.759 726.438 35.8333 727.04C36.9146 727.641 37.7561 728.483 38.3577 729.564C38.9592 730.638 39.26 731.86 39.26 733.227C39.26 734.588 38.9628 735.802 38.3684 736.869C37.774 737.929 36.9361 738.756 35.8547 739.35C34.7805 739.945 33.5487 740.242 32.1594 740.242H26.9172V726.138H32.1594ZM31.9338 737.889C32.8577 737.889 33.6669 737.696 34.3616 737.309C35.0634 736.916 35.6041 736.368 35.9836 735.666C36.3632 734.964 36.553 734.151 36.553 733.227C36.553 732.289 36.3632 731.466 35.9836 730.757C35.6041 730.041 35.0634 729.485 34.3616 729.092C33.6669 728.691 32.8577 728.49 31.9338 728.49H29.4954V737.889H31.9338ZM42.2786 726.138L43.9543 728.995C44.3625 729.711 44.7242 730.374 45.0393 730.982C45.3544 731.584 45.5478 731.963 45.6194 732.121C45.7053 731.956 45.8987 731.598 46.1995 731.047C46.5074 730.488 46.887 729.804 47.3381 728.995L49.0139 726.138H51.8928L46.8977 734.592V740.242H44.3196V734.592L39.303 726.138H42.2786ZM59.4768 726.138C60.9592 726.138 62.123 726.556 62.968 727.394C63.8202 728.232 64.2463 729.353 64.2463 730.757C64.2463 731.666 64.053 732.472 63.6663 733.174C63.2795 733.868 62.7209 734.413 61.9905 734.806C61.2672 735.2 60.415 735.397 59.4338 735.397H56.2649V740.242H53.6868V726.138H59.4768ZM58.9504 733.184C59.817 733.184 60.4651 732.952 60.8948 732.486C61.3316 732.013 61.55 731.423 61.55 730.714C61.55 730.069 61.3316 729.525 60.8948 729.081C60.4651 728.63 59.8385 728.404 59.0149 728.404H56.2649V733.184H58.9504ZM65.9651 730.144C65.9651 729.278 66.1728 728.522 66.5881 727.878C67.0107 727.233 67.6015 726.735 68.3606 726.385C69.1269 726.034 70.0077 725.858 71.0032 725.858C71.9843 725.858 72.858 726.03 73.6243 726.374C74.3905 726.718 74.9885 727.205 75.4182 727.835C75.8479 728.465 76.0627 729.199 76.0627 730.037H73.4094C73.3951 729.435 73.1552 728.952 72.6897 728.587C72.2314 728.214 71.6262 728.028 70.8743 728.028C70.1868 728.028 69.6353 728.2 69.22 728.544C68.8118 728.88 68.6077 729.317 68.6077 729.854C68.6077 730.384 68.7867 730.775 69.1448 731.025C69.51 731.276 69.9934 731.473 70.595 731.616L72.9045 732.185C73.9573 732.436 74.8095 732.898 75.4612 733.571C76.1129 734.237 76.4387 735.096 76.4387 736.149C76.4387 737.03 76.2167 737.8 75.7727 738.459C75.3359 739.118 74.7128 739.63 73.9036 739.995C73.1015 740.353 72.1669 740.532 71.0999 740.532C69.5172 740.532 68.2281 740.149 67.2327 739.383C66.2444 738.609 65.7073 737.56 65.6213 736.235H68.2747C68.3033 736.894 68.579 737.413 69.1018 737.793C69.6246 738.165 70.3049 738.351 71.1428 738.351C71.9521 738.351 72.5859 738.18 73.0442 737.836C73.5025 737.492 73.7317 737.019 73.7317 736.418C73.7317 735.902 73.5706 735.512 73.2483 735.247C72.926 734.982 72.5035 734.785 71.9807 734.656L69.6174 734.087C68.4573 733.807 67.5585 733.342 66.9211 732.69C66.2838 732.031 65.9651 731.183 65.9651 730.144ZM90.2424 726.138V740.242H87.8254L81.3372 730.585V740.242H78.7805V726.138H81.2083L87.6965 735.816V726.138H90.2424ZM107.494 733.184C107.494 734.602 107.172 735.87 106.528 736.987C105.883 738.104 104.991 738.974 103.853 739.597C102.721 740.221 101.45 740.532 100.039 740.532C98.6285 740.532 97.3573 740.224 96.2258 739.608C95.1015 738.992 94.2206 738.126 93.5833 737.009C92.9459 735.891 92.6272 734.624 92.6272 733.206C92.6272 731.781 92.9459 730.513 93.5833 729.403C94.2206 728.286 95.1015 727.416 96.2258 726.793C97.3573 726.17 98.6357 725.858 100.061 725.858C101.472 725.858 102.739 726.17 103.864 726.793C104.995 727.416 105.883 728.282 106.528 729.392C107.172 730.495 107.494 731.759 107.494 733.184ZM104.766 733.184C104.766 732.225 104.565 731.373 104.164 730.628C103.763 729.883 103.201 729.303 102.478 728.888C101.762 728.465 100.956 728.254 100.061 728.254C99.1513 728.254 98.3349 728.465 97.6116 728.888C96.8954 729.303 96.3333 729.883 95.925 730.628C95.5168 731.373 95.3127 732.232 95.3127 733.206C95.3127 734.158 95.5168 735.011 95.925 735.763C96.3333 736.507 96.8954 737.087 97.6116 737.503C98.3349 737.918 99.1513 738.126 100.061 738.126C100.956 738.126 101.762 737.918 102.478 737.503C103.201 737.087 103.763 736.507 104.164 735.763C104.565 735.011 104.766 734.151 104.766 733.184ZM112.447 728.49V732.013H118.237V734.259H112.447V737.889H118.892V740.242H109.868V726.138H118.892V728.49H112.447ZM125.498 726.138H128.119L133.351 740.242H130.622L129.484 737.03H124.091L122.899 740.242H120.235L125.498 726.138ZM128.732 734.892L127.829 732.411C127.743 732.175 127.507 731.476 127.12 730.316L126.82 729.435C126.762 729.629 126.626 730.033 126.411 730.649C126.197 731.265 125.978 731.852 125.756 732.411L124.832 734.892H128.732Z" fill="#FF383D"/>
</g>
<path d="M81.6699 641.884C130.442 641.884 169.98 681.422 169.98 730.194C169.98 778.969 130.442 818.507 81.6699 818.507V862.118" stroke="#FFD6D7" stroke-width="2.4" stroke-miterlimit="10"/>
<path d="M74.4075 864.322C74.4075 860.31 77.6581 857.06 81.6697 857.06C85.6814 857.06 88.932 860.31 88.932 864.322C88.932 868.331 85.6814 871.584 81.6697 871.584C77.6581 871.584 74.4075 868.331 74.4075 864.322Z" fill="#F2AEB0"/>
<path d="M187.078 742.076H365.371C375.003 742.076 383.703 736.317 387.465 727.449L443.878 594.475C447.64 585.607 456.339 579.848 465.972 579.848H673.146" stroke="#FFB2B1" stroke-width="5" stroke-linejoin="round"/>
<path d="M202.324 742.483C202.324 747.519 198.242 751.601 193.206 751.601C188.17 751.601 184.087 747.519 184.087 742.483C184.087 737.446 188.17 733.364 193.206 733.364C198.242 733.364 202.324 737.446 202.324 742.483Z" fill="#FF383D"/>
<path opacity="0.15" d="M159.605 487.608C159.605 448.598 127.981 416.974 88.9712 416.974C49.9614 416.974 18.3372 448.598 18.3372 487.608C18.3372 526.618 49.9614 558.242 88.9712 558.242C127.981 558.242 159.605 526.618 159.605 487.608Z" fill="#FF383D"/>
<path d="M58.54 473.469H54.2754V485.242H51.6973V473.469H47.3896V471.137H58.54V473.469ZM60.4521 471.137H63.0303V476.992L69.2822 477.013V471.137H71.8711V485.242H69.2822V479.237H63.0303V485.242H60.4521V471.137ZM74.9111 471.137H80.5078C82.2266 471.137 83.5299 471.521 84.418 472.287C85.3132 473.046 85.7607 474.131 85.7607 475.542C85.7607 476.523 85.5316 477.361 85.0732 478.055C84.6221 478.743 83.9847 479.241 83.1611 479.549L85.8467 485.242H82.9678L80.5938 479.989H77.4893V485.242H74.9111V471.137ZM80.5078 477.744C81.3457 477.744 81.9795 477.543 82.4092 477.142C82.8389 476.734 83.0537 476.208 83.0537 475.563C83.0537 474.919 82.8353 474.399 82.3984 474.006C81.9688 473.605 81.3385 473.404 80.5078 473.404H77.4893V477.744H80.5078ZM102.207 478.184C102.207 479.602 101.885 480.87 101.24 481.987C100.596 483.104 99.7041 483.974 98.5654 484.597C97.4339 485.22 96.1628 485.532 94.752 485.532C93.3411 485.532 92.07 485.224 90.9385 484.608C89.8141 483.992 88.9333 483.126 88.2959 482.009C87.6585 480.891 87.3398 479.624 87.3398 478.206C87.3398 476.781 87.6585 475.513 88.2959 474.403C88.9333 473.286 89.8141 472.416 90.9385 471.793C92.07 471.17 93.3483 470.858 94.7734 470.858C96.1842 470.858 97.4518 471.17 98.5762 471.793C99.7077 472.416 100.596 473.282 101.24 474.392C101.885 475.495 102.207 476.759 102.207 478.184ZM99.4785 478.184C99.4785 477.225 99.278 476.372 98.877 475.628C98.4759 474.883 97.9137 474.303 97.1904 473.887C96.4743 473.465 95.6686 473.254 94.7734 473.254C93.8639 473.254 93.0475 473.465 92.3242 473.887C91.6081 474.303 91.0459 474.883 90.6377 475.628C90.2295 476.372 90.0254 477.232 90.0254 478.206C90.0254 479.158 90.2295 480.01 90.6377 480.762C91.0459 481.507 91.6081 482.087 92.3242 482.503C93.0475 482.918 93.8639 483.126 94.7734 483.126C95.6686 483.126 96.4743 482.918 97.1904 482.503C97.9137 482.087 98.4759 481.507 98.877 480.762C99.278 480.01 99.4785 479.151 99.4785 478.184ZM107.793 471.137H110.414L115.646 485.242H112.917L111.778 482.03H106.386L105.193 485.242H102.529L107.793 471.137ZM111.026 479.892L110.124 477.411C110.038 477.175 109.802 476.476 109.415 475.316L109.114 474.435C109.057 474.629 108.921 475.033 108.706 475.649C108.491 476.265 108.273 476.852 108.051 477.411L107.127 479.892H111.026ZM126.044 473.469H121.779V485.242H119.201V473.469H114.894V471.137H126.044V473.469ZM74.0195 500.137C75.502 500.137 76.6657 500.556 77.5107 501.394C78.363 502.232 78.7891 503.353 78.7891 504.757C78.7891 505.666 78.5957 506.472 78.209 507.174C77.8223 507.868 77.2637 508.413 76.5332 508.806C75.8099 509.2 74.9577 509.397 73.9766 509.397H70.8076V514.242H68.2295V500.137H74.0195ZM73.4932 507.184C74.3597 507.184 75.0078 506.952 75.4375 506.486C75.8743 506.013 76.0928 505.423 76.0928 504.714C76.0928 504.069 75.8743 503.525 75.4375 503.081C75.0078 502.63 74.3812 502.404 73.5576 502.404H70.8076V507.184H73.4932ZM83.709 500.137H86.3301L91.5615 514.242H88.833L87.6943 511.03H82.3018L81.1094 514.242H78.4453L83.709 500.137ZM86.9424 508.892L86.04 506.411C85.9541 506.175 85.7178 505.476 85.3311 504.316L85.0303 503.435C84.973 503.629 84.8369 504.033 84.6221 504.649C84.4072 505.265 84.1888 505.852 83.9668 506.411L83.043 508.892H86.9424ZM93.3662 514.242V500.137H95.9443V514.242H93.3662ZM110.436 500.137V514.242H108.019L101.53 504.585V514.242H98.9736V500.137H101.401L107.89 509.816V500.137H110.436Z" fill="#FF383D"/>
<path d="M90.31 399.268C41.5377 399.268 2 438.805 2 487.58C2 536.353 41.5377 575.89 90.31 575.89V619.504" stroke="#FFD6D7" stroke-width="2.4" stroke-miterlimit="10"/>
<path d="M97.7701 621.787C97.7701 617.775 94.5195 614.525 90.5079 614.525C86.4989 614.525 83.2456 617.775 83.2456 621.787C83.2456 625.798 86.4989 629.049 90.5079 629.049C94.5195 629.049 97.7701 625.798 97.7701 621.787Z" fill="#F2AEB0"/>
<path d="M190.849 502.312H394.159C401.58 502.312 408.584 498.88 413.129 493.014L455.865 437.871C460.411 432.005 467.415 428.573 474.835 428.573H632.059" stroke="#FFB2B1" stroke-width="5" stroke-linejoin="round"/>
<path d="M201.098 502.828C201.098 507.864 197.016 511.946 191.98 511.946C186.944 511.946 182.861 507.864 182.861 502.828C182.861 497.792 186.944 493.709 191.98 493.709C197.016 493.709 201.098 497.792 201.098 502.828Z" fill="#FF383D"/>
<path opacity="0.13" d="M1160.34 699.608C1160.34 660.598 1128.72 628.974 1089.71 628.974C1050.7 628.974 1019.07 660.598 1019.07 699.608C1019.07 738.618 1050.7 770.242 1089.71 770.242C1128.72 770.242 1160.34 738.618 1160.34 699.608Z" fill="#FF383D"/>
<path d="M1046.05 683.144C1046.05 682.278 1046.26 681.522 1046.68 680.878C1047.1 680.233 1047.69 679.735 1048.45 679.384C1049.22 679.034 1050.1 678.858 1051.09 678.858C1052.07 678.858 1052.95 679.03 1053.71 679.374C1054.48 679.717 1055.08 680.204 1055.51 680.835C1055.94 681.465 1056.15 682.199 1056.15 683.037H1053.5C1053.48 682.435 1053.24 681.952 1052.78 681.587C1052.32 681.214 1051.71 681.028 1050.96 681.028C1050.28 681.028 1049.72 681.2 1049.31 681.544C1048.9 681.88 1048.7 682.317 1048.7 682.854C1048.7 683.384 1048.88 683.774 1049.23 684.025C1049.6 684.276 1050.08 684.473 1050.68 684.616L1052.99 685.185C1054.05 685.436 1054.9 685.898 1055.55 686.571C1056.2 687.237 1056.53 688.096 1056.53 689.149C1056.53 690.03 1056.31 690.8 1055.86 691.459C1055.42 692.118 1054.8 692.63 1053.99 692.995C1053.19 693.353 1052.26 693.532 1051.19 693.532C1049.61 693.532 1048.32 693.149 1047.32 692.383C1046.33 691.609 1045.8 690.56 1045.71 689.235H1048.36C1048.39 689.894 1048.67 690.413 1049.19 690.793C1049.71 691.165 1050.39 691.351 1051.23 691.351C1052.04 691.351 1052.67 691.179 1053.13 690.836C1053.59 690.492 1053.82 690.019 1053.82 689.418C1053.82 688.902 1053.66 688.512 1053.34 688.247C1053.01 687.982 1052.59 687.785 1052.07 687.656L1049.71 687.087C1048.55 686.807 1047.65 686.342 1047.01 685.69C1046.37 685.031 1046.05 684.183 1046.05 683.144ZM1058.87 679.137H1061.45V684.992L1067.7 685.013V679.137H1070.29V693.242H1067.7V687.237H1061.45V693.242H1058.87V679.137ZM1077.21 679.137H1079.83L1085.06 693.242H1082.33L1081.19 690.03H1075.8L1074.61 693.242H1071.94L1077.21 679.137ZM1080.44 687.892L1079.54 685.411C1079.45 685.174 1079.21 684.476 1078.83 683.316L1078.53 682.435C1078.47 682.629 1078.33 683.033 1078.12 683.649C1077.9 684.265 1077.69 684.852 1077.46 685.411L1076.54 687.892H1080.44ZM1093.56 685.207L1098.42 693.242H1095.32L1091.79 687.387L1089.46 690.277V693.285H1086.86V679.137H1089.46V686.313L1095.23 679.137H1098.44L1093.56 685.207ZM1100.29 693.242V679.137H1102.87V693.242H1100.29ZM1117.36 679.137V693.242H1114.94L1108.46 683.585V693.242H1105.9V679.137H1108.33L1114.81 688.816V679.137H1117.36ZM1133.96 685.583V686.925C1133.96 688.229 1133.66 689.382 1133.05 690.384C1132.45 691.38 1131.62 692.153 1130.54 692.705C1129.47 693.256 1128.26 693.532 1126.89 693.532C1125.46 693.532 1124.21 693.231 1123.14 692.63C1122.07 692.028 1121.23 691.183 1120.64 690.094C1120.04 688.999 1119.75 687.731 1119.75 686.292C1119.75 684.824 1120.05 683.531 1120.66 682.414C1121.27 681.289 1122.12 680.416 1123.21 679.793C1124.32 679.17 1125.58 678.858 1127.01 678.858C1128.15 678.858 1129.19 679.059 1130.12 679.46C1131.06 679.861 1131.84 680.426 1132.45 681.157C1133.07 681.88 1133.47 682.711 1133.67 683.649H1130.92C1130.64 682.89 1130.14 682.299 1129.43 681.877C1128.73 681.447 1127.89 681.232 1126.93 681.232C1125.54 681.232 1124.43 681.69 1123.62 682.607C1122.81 683.524 1122.41 684.738 1122.41 686.249C1122.41 687.76 1122.82 688.952 1123.63 689.826C1124.46 690.692 1125.56 691.126 1126.95 691.126C1128.11 691.126 1129.07 690.836 1129.83 690.256C1130.6 689.668 1131.06 688.845 1131.21 687.785H1126.74V685.583H1133.96ZM1063.31 722.532C1061.89 722.532 1060.64 722.228 1059.54 721.619C1058.44 721.01 1057.58 720.147 1056.97 719.03C1056.35 717.913 1056.04 716.631 1056.04 715.184C1056.04 713.745 1056.35 712.47 1056.96 711.36C1057.57 710.243 1058.42 709.38 1059.51 708.771C1060.62 708.162 1061.88 707.858 1063.31 707.858C1064.48 707.858 1065.55 708.059 1066.53 708.46C1067.5 708.861 1068.31 709.441 1068.95 710.2C1069.58 710.952 1069.99 711.826 1070.17 712.821H1067.3C1067.08 712.062 1066.61 711.442 1065.88 710.963C1065.16 710.476 1064.29 710.232 1063.28 710.232C1062.37 710.232 1061.57 710.436 1060.88 710.844C1060.19 711.253 1059.66 711.836 1059.29 712.595C1058.92 713.347 1058.73 714.217 1058.73 715.206C1058.73 716.201 1058.92 717.075 1059.3 717.827C1059.68 718.572 1060.21 719.141 1060.9 719.535C1061.59 719.929 1062.39 720.126 1063.28 720.126C1064.27 720.126 1065.12 719.889 1065.85 719.417C1066.59 718.937 1067.07 718.303 1067.3 717.515H1070.17C1070.01 718.496 1069.61 719.37 1068.98 720.136C1068.35 720.896 1067.55 721.486 1066.57 721.909C1065.6 722.324 1064.51 722.532 1063.31 722.532ZM1072.51 708.137H1075.09V713.992L1081.34 714.013V708.137H1083.93V722.242H1081.34V716.237H1075.09V722.242H1072.51V708.137ZM1086.97 722.242V708.137H1089.55V722.242H1086.97ZM1101.01 719.911V722.242H1092.58V708.137H1095.18V719.911H1101.01ZM1111.52 719.911V722.242H1103.08V708.137H1105.68V719.911H1111.52ZM1113.19 712.144C1113.19 711.278 1113.4 710.522 1113.82 709.878C1114.24 709.233 1114.83 708.735 1115.59 708.384C1116.35 708.034 1117.24 707.858 1118.23 707.858C1119.21 707.858 1120.09 708.03 1120.85 708.374C1121.62 708.717 1122.22 709.204 1122.65 709.835C1123.08 710.465 1123.29 711.199 1123.29 712.037H1120.64C1120.62 711.435 1120.38 710.952 1119.92 710.587C1119.46 710.214 1118.85 710.028 1118.1 710.028C1117.41 710.028 1116.86 710.2 1116.45 710.544C1116.04 710.88 1115.83 711.317 1115.83 711.854C1115.83 712.384 1116.01 712.774 1116.37 713.025C1116.74 713.276 1117.22 713.473 1117.82 713.616L1120.13 714.185C1121.18 714.436 1122.04 714.898 1122.69 715.571C1123.34 716.237 1123.67 717.096 1123.67 718.149C1123.67 719.03 1123.44 719.8 1123 720.459C1122.56 721.118 1121.94 721.63 1121.13 721.995C1120.33 722.353 1119.39 722.532 1118.33 722.532C1116.74 722.532 1115.46 722.149 1114.46 721.383C1113.47 720.609 1112.93 719.56 1112.85 718.235H1115.5C1115.53 718.894 1115.81 719.413 1116.33 719.793C1116.85 720.165 1117.53 720.351 1118.37 720.351C1119.18 720.351 1119.81 720.179 1120.27 719.836C1120.73 719.492 1120.96 719.019 1120.96 718.418C1120.96 717.902 1120.8 717.512 1120.48 717.247C1120.15 716.982 1119.73 716.785 1119.21 716.656L1116.84 716.087C1115.68 715.807 1114.79 715.342 1114.15 714.69C1113.51 714.031 1113.19 713.183 1113.19 712.144Z" fill="#FA5652"/>
<path d="M1090.21 613.043C1041.43 613.043 1001.9 652.581 1001.9 701.353C1001.9 750.128 1041.43 789.666 1090.21 789.666V833.277" stroke="#FFD6D7" stroke-width="2.4" stroke-miterlimit="10"/>
<path d="M1097.46 835.481C1097.46 831.469 1094.21 828.218 1090.2 828.218C1086.19 828.218 1082.94 831.469 1082.94 835.481C1082.94 839.49 1086.19 842.743 1090.2 842.743C1094.21 842.743 1097.46 839.49 1097.46 835.481Z" fill="#F2AEB0"/>
<path d="M726.075 753.643H817.184C824.462 753.643 831.347 750.34 835.902 744.663L861.433 712.847C865.988 707.171 872.873 703.868 880.152 703.868H974.333" stroke="#FFA6A6" stroke-width="5" stroke-linejoin="round"/>
<path d="M980.28 703.154C980.28 708.191 976.198 712.273 971.162 712.273C966.126 712.273 962.044 708.191 962.044 703.154C962.044 698.118 966.126 694.036 971.162 694.036C976.198 694.036 980.28 698.118 980.28 703.154Z" fill="#FF383D"/>
<path d="M1036.92 210.138H1039.5V215.992L1045.75 216.013V210.138H1048.34V224.242H1045.75V218.237H1039.5V224.242H1036.92V210.138ZM1053.95 212.49V216.013H1059.74V218.259H1053.95V221.889H1060.4V224.242H1051.38V210.138H1060.4V212.49H1053.95ZM1067.01 210.138H1069.63L1074.86 224.242H1072.13L1070.99 221.03H1065.6L1064.41 224.242H1061.74L1067.01 210.138ZM1070.24 218.892L1069.34 216.411C1069.25 216.175 1069.02 215.476 1068.63 214.316L1068.33 213.435C1068.27 213.629 1068.13 214.033 1067.92 214.649C1067.7 215.265 1067.49 215.852 1067.26 216.411L1066.34 218.892H1070.24ZM1081.91 210.138C1083.28 210.138 1084.51 210.438 1085.58 211.04C1086.66 211.641 1087.5 212.483 1088.1 213.564C1088.71 214.638 1089.01 215.86 1089.01 217.227C1089.01 218.588 1088.71 219.802 1088.11 220.869C1087.52 221.929 1086.68 222.756 1085.6 223.35C1084.53 223.945 1083.3 224.242 1081.91 224.242H1076.66V210.138H1081.91ZM1081.68 221.889C1082.6 221.889 1083.41 221.696 1084.11 221.309C1084.81 220.916 1085.35 220.368 1085.73 219.666C1086.11 218.964 1086.3 218.151 1086.3 217.227C1086.3 216.289 1086.11 215.466 1085.73 214.757C1085.35 214.041 1084.81 213.485 1084.11 213.092C1083.41 212.691 1082.6 212.49 1081.68 212.49H1079.24V221.889H1081.68ZM1094.59 210.138H1097.21L1102.45 224.242H1099.72L1098.58 221.03H1093.19L1091.99 224.242H1089.33L1094.59 210.138ZM1097.83 218.892L1096.92 216.411C1096.84 216.175 1096.6 215.476 1096.21 214.316L1095.91 213.435C1095.86 213.629 1095.72 214.033 1095.51 214.649C1095.29 215.265 1095.07 215.852 1094.85 216.411L1093.93 218.892H1097.83ZM1110.06 224.532C1108.65 224.532 1107.39 224.228 1106.29 223.619C1105.2 223.01 1104.34 222.147 1103.72 221.03C1103.11 219.913 1102.8 218.631 1102.8 217.184C1102.8 215.745 1103.1 214.47 1103.71 213.36C1104.32 212.243 1105.17 211.38 1106.27 210.771C1107.37 210.163 1108.64 209.858 1110.06 209.858C1111.24 209.858 1112.31 210.059 1113.28 210.46C1114.26 210.861 1115.06 211.441 1115.7 212.2C1116.34 212.952 1116.75 213.826 1116.93 214.821H1114.06C1113.84 214.062 1113.36 213.443 1112.64 212.963C1111.92 212.476 1111.05 212.232 1110.04 212.232C1109.13 212.232 1108.33 212.436 1107.63 212.845C1106.95 213.253 1106.42 213.836 1106.04 214.596C1105.67 215.347 1105.49 216.218 1105.49 217.206C1105.49 218.201 1105.67 219.075 1106.05 219.827C1106.43 220.572 1106.97 221.141 1107.66 221.535C1108.35 221.929 1109.14 222.126 1110.04 222.126C1111.02 222.126 1111.88 221.889 1112.61 221.417C1113.34 220.937 1113.83 220.303 1114.06 219.515H1116.93C1116.76 220.497 1116.36 221.37 1115.73 222.137C1115.1 222.896 1114.3 223.486 1113.33 223.909C1112.35 224.324 1111.26 224.532 1110.06 224.532ZM1119.27 210.138H1121.85V215.992L1128.1 216.013V210.138H1130.69V224.242H1128.1V218.237H1121.85V224.242H1119.27V210.138ZM1136.3 212.49V216.013H1142.09V218.259H1136.3V221.889H1142.75V224.242H1133.73V210.138H1142.75V212.49H1136.3Z" fill="#FF383D"/>
<path opacity="0.15" d="M1160.34 213.608C1160.34 174.598 1128.71 142.974 1089.7 142.974C1050.69 142.974 1019.07 174.598 1019.07 213.608C1019.07 252.618 1050.69 284.242 1089.7 284.242C1128.71 284.242 1160.34 252.618 1160.34 213.608Z" fill="#FF383D"/>
<path d="M1090.21 126.892C1041.43 126.892 1001.9 166.429 1001.9 215.202C1001.9 263.974 1041.43 303.514 1090.21 303.514V347.125" stroke="#FFD6D7" stroke-width="2.4" stroke-miterlimit="10"/>
<path d="M1097.47 349.329C1097.47 345.317 1094.22 342.067 1090.21 342.067C1086.19 342.067 1082.94 345.317 1082.94 349.329C1082.94 353.341 1086.19 356.591 1090.21 356.591C1094.22 356.591 1097.47 353.341 1097.47 349.329Z" fill="#F2AEB0"/>
<path d="M976.176 222.101H849.896C843.779 222.101 837.893 224.437 833.44 228.632L804.904 255.513C800.452 259.708 794.565 262.044 788.448 262.044H674.458" stroke="#FFB2B1" stroke-width="5" stroke-linejoin="round"/>
<path d="M980.278 221.388C980.278 226.424 976.196 230.506 971.16 230.506C966.124 230.506 962.042 226.424 962.042 221.388C962.042 216.351 966.124 212.269 971.16 212.269C976.196 212.269 980.278 216.351 980.278 221.388Z" fill="#FF383D"/>
<defs>
<filter id="filter0_d" x="26.9172" y="725.858" width="106.434" height="14.6738" filterUnits="userSpaceOnUse" color-interpolation-filters="sRGB">
<feFlood flood-opacity="0" result="BackgroundImageFix"/>
<feColorMatrix in="SourceAlpha" type="matrix" values="0 0 0 0 0 0 0 0 0 0 0 0 0 0 0 0 0 0 127 0"/>
<feOffset/>
<feColorMatrix type="matrix" values="0 0 0 0 0 0 0 0 0 0 0 0 0 0 0 0 0 0 0.1 0"/>
<feBlend mode="normal" in2="BackgroundImageFix" result="effect1_dropShadow"/>
<feBlend mode="normal" in="SourceGraphic" in2="effect1_dropShadow" result="shape"/>
</filter>
<linearGradient id="paint0_linear" x1="279.953" y1="651.044" x2="344.203" y2="779.417" gradientUnits="userSpaceOnUse">
<stop stop-color="#FFC8C8"/>
<stop offset="1" stop-color="#FFF2F5"/>
</linearGradient>
<linearGradient id="paint1_linear" x1="911.517" y1="247.741" x2="389.848" y2="37.4791" gradientUnits="userSpaceOnUse">
<stop stop-color="white"/>
<stop offset="1" stop-color="#FFD5D5"/>
</linearGradient>
<linearGradient id="paint2_linear" x1="844.283" y1="152.778" x2="683.21" y2="126.209" gradientUnits="userSpaceOnUse">
<stop stop-color="#FFD3D3"/>
<stop offset="1" stop-color="#FFF6F6"/>
</linearGradient>
<linearGradient id="paint3_linear" x1="205.769" y1="427.267" x2="963.103" y2="427.267" gradientUnits="userSpaceOnUse">
<stop stop-color="#FFF8F5"/>
<stop offset="1" stop-color="#FFDEDE"/>
</linearGradient>
<linearGradient id="paint4_linear" x1="893.346" y1="608.776" x2="694.961" y2="627.06" gradientUnits="userSpaceOnUse">
<stop stop-color="#FFC2C2"/>
<stop offset="1" stop-color="white"/>
</linearGradient>
</defs>
</svg>
